<?xml version="1.0" encoding="UTF-8" standalone="no"?>
<!DOCTYPE svg PUBLIC "-//W3C//DTD SVG 1.1//EN" "http://www.w3.org/Graphics/SVG/1.1/DTD/svg11.dtd">
<svg width="100%" height="100%" viewBox="0 0 86 86" version="1.1" xmlns="http://www.w3.org/2000/svg" xmlns:xlink="http://www.w3.org/1999/xlink" xml:space="preserve" xmlns:serif="http://www.serif.com/" style="fill-rule:evenodd;clip-rule:evenodd;stroke-linejoin:round;stroke-miterlimit:2;">
    <g id="Layer_1" transform="matrix(-1,0,0,1,86,0)">
        <path d="M1.723,0.4L43,0.4C66.583,0.4 85.7,19.466 85.7,42.995L85.7,84.18C85.7,84.964 85.063,85.6 84.277,85.6L43,85.6C19.417,85.6 0.3,66.524 0.3,42.994L0.3,1.82C0.3,1.035 0.937,0.4 1.723,0.4Z" style="fill:url(#_Linear1);fill-rule:nonzero;"/>
        <g transform="matrix(-1,0,0,1,102.034,-11.1263)">
            <text x="42.512px" y="66.618px" style="font-family:'HelveticaNeue', 'Helvetica Neue';font-size:36px;fill:white;fill-opacity:0.95;">M</text>
        </g>
        <g transform="matrix(-3.55277,0,0,3.55277,147.43,-70.8895)">
            <text x="21.044px" y="35.159px" style="font-family:'HelveticaNeue', 'Helvetica Neue';font-size:12px;fill:white;fill-opacity:0.95;">[   ]</text>
        </g>
    </g>
    <defs>
        <linearGradient id="_Linear1" x1="0" y1="0" x2="1" y2="0" gradientUnits="userSpaceOnUse" gradientTransform="matrix(-84.4676,-84.4676,84.4676,-84.4676,85.2351,85.2325)"><stop offset="0" style="stop-color:rgb(0,140,105);stop-opacity:1"/><stop offset="1" style="stop-color:rgb(91,181,49);stop-opacity:1"/></linearGradient>
    </defs>
</svg>
